Coordinates
version=1
nRows=16
nColumns=24
inDegrees=no

Units are S.I. units (second, meters, Newtons, ...)
If the header above contains a line with 'inDegrees', this indicates whether rotational values are in degrees (yes) or radians (no).

endheader
time	pelvis_tilt	pelvis_list	pelvis_rotation	pelvis_tx	pelvis_ty	pelvis_tz	hip_flexion_r	hip_adduction_r	hip_rotation_r	knee_angle_r	ankle_angle_r	subtalar_angle_r	mtp_angle_r	hip_flexion_l	hip_adduction_l	hip_rotation_l	knee_angle_l	ankle_angle_l	subtalar_angle_l	mtp_angle_l	lumbar_extension	lumbar_bending	lumbar_rotation
35.01	0.43332	-0.0509314	-0.010368	0.817808	1.09459	0.590268	-0.497223	0.0231468	-0.20641	0.161183	0.153331	0.0731461	-0.000753333	-0.0352742	-0.232971	-0.304968	0.862436	-0.043932	-0.363625	-0.00212676	-0.643545	0.0311859	0.0115219
35.02	0.432571	-0.0475009	-0.0126846	0.816384	1.09402	0.590239	-0.512496	0.019585	-0.202705	0.152651	0.158062	0.0719741	-0.000753333	-0.027388	-0.227573	-0.310966	0.816666	-0.0377009	-0.353389	-0.00212676	-0.644824	0.025722	0.0140717
35.03	0.432334	-0.044335	-0.0145282	0.815059	1.09326	0.590116	-0.528561	0.0163999	-0.198848	0.144105	0.162307	0.0699825	-0.000753333	-0.0218283	-0.222006	-0.317025	0.767112	-0.0307907	-0.341674	-0.00212676	-0.64631	0.0205721	0.0163476
35.04	0.429751	-0.0416299	-0.0160255	0.81363	1.09213	0.589838	-0.540782	0.0134823	-0.195414	0.137789	0.166628	0.06774	-0.000753333	-0.0152841	-0.215981	-0.321941	0.713357	-0.0236044	-0.328108	-0.00212676	-0.646282	0.0161969	0.0180306
35.05	0.422125	-0.0399104	-0.0173613	0.811969	1.09046	0.589373	-0.54472	0.0109434	-0.193089	0.136225	0.171522	0.0655354	-0.000753333	-0.00441639	-0.209855	-0.324569	0.656039	-0.017168	-0.312034	-0.00212676	-0.642684	0.0131738	0.0191213
35.06	0.411702	-0.0391964	-0.0186636	0.810306	1.0884	0.588774	-0.54402	0.00887911	-0.191419	0.137828	0.176894	0.0632024	-0.000753333	0.00809905	-0.204223	-0.32612	0.596484	-0.0117607	-0.290893	-0.00212676	-0.636589	0.011252	0.020172
35.07	0.401791	-0.0391455	-0.0200744	0.808787	1.08622	0.588091	-0.543735	0.00719316	-0.18973	0.140109	0.183128	0.0609309	-0.000753333	0.018211	-0.199075	-0.327774	0.535328	-0.00739981	-0.263552	-0.00212676	-0.630683	0.0098406	0.0214609
35.08	0.392671	-0.0393896	-0.0218468	0.807393	1.08395	0.587301	-0.543955	0.0053503	-0.188222	0.143261	0.190749	0.0593055	-0.000753333	0.0255475	-0.193764	-0.328934	0.473036	-0.0038977	-0.23187	-0.00212676	-0.625405	0.00860068	0.0229606
35.09	0.383907	-0.0395009	-0.0242681	0.806217	1.08157	0.586373	-0.543906	0.00257857	-0.187349	0.148147	0.19882	0.058277	-0.000753333	0.0308203	-0.187734	-0.329059	0.411091	-0.000560491	-0.198457	-0.00212676	-0.619804	0.00714717	0.0248304
35.1	0.376084	-0.039506	-0.02788	0.805101	1.07916	0.585368	-0.543857	-0.00139596	-0.187389	0.154959	0.206424	0.0575456	-0.000753333	0.033573	-0.181187	-0.328763	0.350768	0.00333028	-0.164652	-0.00212676	-0.615433	0.00502381	0.0269731
35.11	0.369401	-0.0394393	-0.032771	0.804043	1.07676	0.584315	-0.543859	-0.00650772	-0.188457	0.163886	0.214812	0.0574335	-0.000753333	0.0338493	-0.174439	-0.329353	0.293596	0.00804347	-0.130841	-0.00212676	-0.612512	0.0020645	0.0294272
35.12	0.362603	-0.0384706	-0.0378566	0.803958	1.07416	0.583073	-0.543841	-0.0130317	-0.189841	0.175223	0.225392	0.0581141	-0.000753333	0.0339468	-0.167089	-0.331949	0.243539	0.0127577	-0.098909	-0.00212676	-0.604439	-0.00150368	0.0333616
35.13	0.355637	-0.0364966	-0.043192	0.804889	1.0714	0.581556	-0.543821	-0.0213263	-0.190998	0.188952	0.236481	0.0593509	-0.000753333	0.034299	-0.158901	-0.336658	0.202278	0.0172309	-0.0710217	-0.00212676	-0.591007	-0.00537427	0.0388578
35.14	0.350499	-0.0346486	-0.0503169	0.805468	1.06887	0.57987	-0.543805	-0.0313093	-0.192978	0.204841	0.245491	0.0613238	-0.000753333	0.0324448	-0.150608	-0.343265	0.168161	0.0225931	-0.0465032	-0.00212676	-0.582282	-0.00948284	0.0438954
35.15	0.347374	-0.032861	-0.0588807	0.805527	1.06663	0.578089	-0.543786	-0.0427402	-0.196317	0.222632	0.252833	0.0639565	-0.000753333	0.0294097	-0.142919	-0.352063	0.143828	0.0277964	-0.0237905	-0.00212676	-0.579246	-0.0141086	0.0476718
35.16	0.344885	-0.0300768	-0.0672631	0.805858	1.06446	0.576173	-0.543767	-0.055663	-0.200037	0.242019	0.259375	0.066333	-0.000753333	0.0280946	-0.135711	-0.362655	0.133462	0.0293403	-0.00323151	-0.00212676	-0.575836	-0.0196133	0.0507234
